<?xml version="1.0" encoding="utf-8"?>
<!-- Generator: Adobe Illustrator 24.0.1, SVG Export Plug-In . SVG Version: 6.00 Build 0)  -->
<svg version="1.1" id="Layer_1" xmlns="http://www.w3.org/2000/svg" xmlns:xlink="http://www.w3.org/1999/xlink" x="0px" y="0px"
	 viewBox="0 0 485.74 309.44" style="enable-background:new 0 0 485.74 309.44;" xml:space="preserve">
<path d="M146.58,0H0v309.44h146.58c39.2,0,67.65-28.67,67.65-68.17V68.17C214.23,28.67,185.78,0,146.58,0z M149.12,268.31H41.13
	V41.13h107.99c12.45,0,22.97,10.99,22.97,23.99v179.21C172.09,257.33,161.57,268.31,149.12,268.31z"/>
<rect x="270.48" width="215.26" height="42.15"/>
<path d="M443.59,84.02v160.31c0,13-10.52,23.98-22.97,23.98H335.6c-12.45,0-22.97-10.98-22.97-23.98V84.02h-42.15v157.25
	c0,39.5,28.46,68.17,67.65,68.17h79.95c39.2,0,67.65-28.67,67.65-68.17V84.02H443.59z"/>
</svg>
